<svg width="50" height="31" viewBox="0 0 50 31" fill="none" xmlns="http://www.w3.org/2000/svg">
<path d="M20.5705 13.9814C21.6081 13.4678 22.3925 12.8956 22.9301 12.2774C23.8864 11.1639 24.3583 9.68754 24.3583 7.85742C24.3583 6.0765 23.8864 4.55396 22.9426 3.27749C21.3675 1.19822 18.7016 0.133978 14.9325 0.0786133H0V30.0773H13.9231C15.492 30.0773 16.9452 29.945 18.2891 29.6744C19.6329 29.4006 20.7955 28.8993 21.78 28.1672C22.6551 27.5305 23.3864 26.74 23.9677 25.808C24.8865 24.3993 25.3459 22.8029 25.3459 21.0251C25.3459 19.3026 24.9428 17.8354 24.1427 16.6297C23.3332 15.424 22.1456 14.5412 20.5705 13.9814ZM6.1599 5.28909H12.8855C14.3637 5.28909 15.5826 5.44596 16.5389 5.75662C17.6453 6.20877 18.1984 7.12844 18.1984 8.53103C18.1984 9.78905 17.7765 10.6687 16.9421 11.1639C16.1014 11.6592 15.0107 11.9083 13.673 11.9083H6.1599V5.28909ZM16.7952 24.3439C16.0514 24.6976 15.0044 24.873 13.6637 24.873H6.1599V16.8727H13.7668C15.0919 16.8819 16.1233 17.0542 16.8608 17.3771C18.1734 17.9616 18.8266 19.0319 18.8266 20.5976C18.8266 22.4431 18.1516 23.6857 16.7952 24.3439Z" fill="#1C1C1C"/>
<path d="M45.1946 1.47778H31.9529V5.21175H45.1946V1.47778Z" fill="#1C1C1C"/>
<path d="M49.7947 16.2143C49.5197 14.4766 48.9134 12.9479 47.9695 11.6285C46.9351 10.1337 45.6224 9.03875 44.0254 8.34673C42.4347 7.65162 40.6439 7.30407 38.65 7.30715C35.3028 7.30715 32.5838 8.3375 30.4805 10.3828C28.3835 12.4343 27.3334 15.3839 27.3334 19.2285C27.3334 23.3283 28.4928 26.2902 30.8243 28.1079C33.1464 29.9287 35.8279 30.8361 38.8719 30.8361C42.5566 30.8361 45.4224 29.7565 47.4695 27.6035C48.779 26.2441 49.5197 24.9062 49.6822 23.5929H43.5816C43.2285 24.2418 42.8191 24.7493 42.3503 25.1184C41.5002 25.795 40.3939 26.1334 39.0375 26.1334C37.7468 26.1334 36.6529 25.8535 35.7403 25.2968C34.234 24.4048 33.4464 22.8424 33.3464 20.6187H49.9947C50.0197 18.7025 49.9572 17.2293 49.7947 16.2143ZM33.4964 16.7895C33.7152 15.347 34.2465 14.2028 35.0903 13.357C35.9341 12.5143 37.128 12.0898 38.6562 12.0867C40.0657 12.0867 41.2439 12.4835 42.2034 13.2801C43.1504 14.0829 43.6848 15.2485 43.7942 16.7895H33.4964Z" fill="#1C1C1C"/>
</svg>
