<svg width="50" height="31" viewBox="0 0 50 31" fill="none" xmlns="http://www.w3.org/2000/svg">
<g clip-path="url(#clip0)">
<path d="M49.5213 3.07938C49.1427 2.61629 48.5755 2.36133 47.9242 2.36133C47.5701 2.36133 47.195 2.43583 46.8095 2.58318L20.5686 12.6001C19.176 13.1316 18.9885 13.9291 19.0005 14.3572C19.0126 14.7853 19.2451 15.571 20.6656 16.0229C20.6741 16.0255 20.6826 16.0281 20.6911 16.0305L26.1342 17.5882L29.0778 26.0056C29.4792 27.1531 30.38 27.866 31.4292 27.866C32.0907 27.866 32.7414 27.5888 33.3109 27.0647L36.6776 23.9647L41.5609 27.8967C41.5613 27.8972 41.562 27.8974 41.5625 27.8979L41.6089 27.9353C41.6131 27.9386 41.6176 27.9421 41.6219 27.9455C42.1647 28.3664 42.7571 28.5888 43.3359 28.589H43.3361C44.4669 28.589 45.3673 27.752 45.6296 26.4569L49.9291 5.22666C50.1017 4.37451 49.957 3.612 49.5213 3.07938V3.07938ZM27.9551 17.2923L38.4564 11.9275L31.9176 18.8755C31.8104 18.9893 31.7345 19.1286 31.6972 19.2802L30.4363 24.3874L27.9551 17.2923ZM32.0803 25.7284C32.0368 25.7684 31.993 25.8041 31.9493 25.837L33.1191 21.0992L35.247 22.8127L32.0803 25.7284ZM48.1489 4.86598L43.8493 26.0964C43.8079 26.2996 43.6757 26.7724 43.3359 26.7724C43.1679 26.7724 42.957 26.6808 42.741 26.5146L37.2076 22.0592C37.2069 22.0585 37.206 22.0577 37.205 22.0573L33.9126 19.406L43.3685 9.35828C43.6712 9.03662 43.6987 8.54397 43.4336 8.19062C43.1682 7.83727 42.6874 7.72611 42.294 7.92715L26.7415 15.8725L21.2244 14.294L47.4573 4.28014C47.6789 4.19547 47.8336 4.17773 47.9242 4.17773C47.9798 4.17773 48.0786 4.18436 48.1153 4.22953C48.1635 4.28842 48.225 4.48922 48.1489 4.86598V4.86598Z" fill="black"/>
</g>
<defs>
<clipPath id="clip0">
<rect width="31" height="31" fill="white" transform="translate(19)"/>
</clipPath>
</defs>
</svg>
