<svg width="25" height="24" viewBox="0 0 25 24" fill="none" xmlns="http://www.w3.org/2000/svg">
<path d="M23.6764 20.3915L15.2996 12.0147L23.6764 3.63782C24.0467 3.26754 24.2547 2.76534 24.2547 2.24168C24.2547 1.71803 24.0467 1.21582 23.6764 0.845545C23.3062 0.475266 22.8039 0.267246 22.2803 0.267246C21.7566 0.267246 21.2544 0.475266 20.8842 0.845545L12.5073 9.22238L4.13049 0.845545C3.76021 0.475266 3.25801 0.267246 2.73436 0.267246C2.2107 0.267246 1.7085 0.475266 1.33822 0.845545C0.967938 1.21582 0.759917 1.71803 0.759918 2.24168C0.759918 2.76534 0.967938 3.26754 1.33822 3.63782L9.71505 12.0147L1.33822 20.3915C0.967938 20.7618 0.759916 21.264 0.759917 21.7876C0.759917 22.3113 0.967937 22.8135 1.33822 23.1838C1.7085 23.554 2.2107 23.7621 2.73435 23.7621C3.25801 23.7621 3.76021 23.554 4.13049 23.1838L12.5073 14.8069L20.8842 23.1838C21.2544 23.554 21.7566 23.7621 22.2803 23.7621C22.8039 23.7621 23.3062 23.554 23.6764 23.1838C24.0467 22.8135 24.2547 22.3113 24.2547 21.7876C24.2547 21.264 24.0467 20.7618 23.6764 20.3915Z" fill="black"/>
</svg>
